<svg width="52" height="48" viewBox="0 0 52 48" fill="none" xmlns="http://www.w3.org/2000/svg">
<path d="M16 21.5C18.7614 21.5 21 19.2615 21 16.5C21 13.7386 18.7614 11.5 16 11.5C13.2386 11.5 11 13.7386 11 16.5C11 19.2615 13.2386 21.5 16 21.5Z" stroke="black" stroke-width="1.25" stroke-linecap="round" stroke-linejoin="round"/>
<path d="M12.4014 46.5C26.3262 16.2499 37.9012 10.9499 51.0012 30.575" stroke="black" stroke-width="1.25" stroke-linecap="round" stroke-linejoin="round"/>
<path d="M41 1.5H11C5.47715 1.5 1 5.97715 1 11.5V36.5C1 42.0228 5.47715 46.5 11 46.5H41C46.5228 46.5 51 42.0228 51 36.5V11.5C51 5.97715 46.5228 1.5 41 1.5Z" stroke="black" stroke-width="1.25" stroke-linecap="round" stroke-linejoin="round"/>
</svg>
