<?xml version="1.0" encoding="UTF-8"?>
<svg id="_Слой_2" data-name="Слой_2" xmlns="http://www.w3.org/2000/svg" viewBox="0 0 76.54 78.57">
  <defs>
    <style>
      .cls-1 {
        stroke-width: 1.8px;
      }

      .cls-1, .cls-2, .cls-3, .cls-4, .cls-5, .cls-6, .cls-7, .cls-8 {
        stroke-miterlimit: 10;
      }

      .cls-1, .cls-2, .cls-6, .cls-8 {
        fill: #04122f;
      }

      .cls-1, .cls-5, .cls-6, .cls-7, .cls-8 {
        stroke-linecap: round;
      }

      .cls-1, .cls-5, .cls-8 {
        stroke: #04122f;
      }

      .cls-2, .cls-3, .cls-4, .cls-6, .cls-7 {
        stroke: #5788eb;
      }

      .cls-2, .cls-4, .cls-5, .cls-6, .cls-7, .cls-8 {
        stroke-width: .5px;
      }

      .cls-3, .cls-4 {
        fill: #5788eb;
      }

      .cls-5, .cls-7 {
        fill: none;
      }
    </style>
  </defs>
  <g id="_фон" data-name="фон">
    <ellipse class="cls-2" cx="38.05" cy="36.6" rx="37.04" ry="34.49"/>
  </g>
  <g id="_шмотка" data-name="шмотка">
    <g>
      <path class="cls-6" d="M6.6,44.21l.59,1.58c1.48,3.65,2.73,6.73,4.8,10.08l-7.8,3.58,31.28,10.42,28.93-13.56-5.88-2.33c2.28-3.52,2.83-5.5,4.32-9.42l1.77-4.49"/>
      <path class="cls-6" d="M17.31,38.74c16.13-2.1,48.4.11,47.38,1.22-1.45,1.56-14.98,4.83-20.41,2.95-.32-.11-1.56-.71-1.48-.09.28,2.22-.07,4.9-2.04,8.8-1.21,2.39-3.68,1.05-6.38.76-1.57-.17-2.93-.47-3.21-.75-2.23-2.3-1.74-3.4-.22-6.03.94-1.62,1.94-2,1.76-2.41-.54-1.19-8.91,2.93-19.81,2.41-.86-.04-6.18-.3-6.3-1.39-.1-.93,4.2-3.76,6.78-4.46l3.94-1.01Z"/>
    </g>
  </g>
  <g id="_инопланетянин" data-name="инопланетянин">
    <path class="cls-3" d="M62.24,35.17c0,2.07.5,3.15-.31,5.01s-6.65,3.26-10.68,3.5c-2.04.12-4.36,0-6.05-.23-.87-.12-2.29-.69-2.44.31-.55,3.85-.36,2.49-.77,4.29-.36,1.53-.8,2.94-1.54,3.78-.68.77-2.59.96-3.81.81-3.41-.41-6-.93-6.56-1.65-2.23-2.88,3.67-8.12,1.82-7.8-2.45.43-3.94.85-5.97,1.27-.38.08-3.91.76-4.28.83-4.11.75-6.74.74-7.43.09-2.73-2.58-3.18-4.83-3.18-8.5,0-4.79,6.08-7.08,8.7-11.55,2.41-4.1,10.4-8.55,17.93-8.55,6.7,0,10.81,2.32,15.4,5.31,5.17,3.36,9.17,7.7,9.17,13.08Z"/>
    <path class="cls-5" d="M29.48,34.46c1.71.77,5.11,2.04,9.54,1.85,4.85-.21,8.38-2.07,10-3.06"/>
    <path class="cls-7" d="M50.32,20.37c.73-.03,1.86-.17,3.13-.7,1.13-.48,1.95-.83,2.31-1.68.52-1.2-.13-2.74-.99-3.54-.81-.76-1.73-.79-1.7-.95.06-.31,3.69-.06,3.7.35,0,.17-.62.35-1.57.54"/>
    <path class="cls-1" d="M34.62,24.96c0,.92-.2,2.89-.4,3.52-.31.99-2.06-.89-4.41-1.03-2.52-.16-4.47-.77-4.47-2.74s2.05-3.57,4.58-3.57,4.7,1.84,4.7,3.81Z"/>
    <path class="cls-1" d="M43.05,24.52c0,.93.2,2.94.41,3.58.32,1,2.09-.9,4.48-1.05,2.57-.16,4.55-.78,4.55-2.78,0-2-2.08-3.62-4.65-3.62s-4.78,1.87-4.78,3.87Z"/>
    <path class="cls-8" d="M37.96,31.08c-.52.8-.68,1.28-1.38,1.23-.47-.04-.29-1.11.22-1.91s1.28-1.28,1.65-.99c.99.78.03.87-.49,1.68Z"/>
    <path class="cls-8" d="M40.34,31.5c.52.8.68,1.28,1.38,1.23.47-.04.29-1.11-.22-1.91s-1.28-1.28-1.65-.99c-.99.78-.03.87.49,1.68Z"/>
    <path class="cls-7" d="M15.45,15.14s-1.5-1.31-1.26-1.27c.35.07,3.18.11,3.31.15,1.05.35-1.28,1.07-1.7,1.28-.68.34-.8.93-.49,1.58.17.36.77,1.46,3,2.63,1.08.57,3,1.39,5.71,1.63"/>
  </g>
  <g id="_звезда" data-name="звезда">
    <g>
      <path class="cls-4" d="M76.29,35.47c0,19.32-17,36.13-36.15,36.13-6.69,0-23.08,7.41-28.7,3.76l11.8-16.27c4.8,3.49,10.62,5.54,16.9,5.54,16.38,0,29.66-13.92,29.66-31.1S56.53,2.43,40.15,2.43c-6.59,0-12.67,2.25-17.6,6.06l-1.62-1.56C26.88,2.59,34.04.25,41.39.25c19.15,0,34.91,15.9,34.91,35.22Z"/>
      <polygon class="cls-4" points="15.98 9.17 19.93 6.02 20.14 .94 23.24 4.92 28.26 5.11 24.31 8.27 24.1 13.34 21 9.36 15.98 9.17"/>
    </g>
    <circle class="cls-4" cx="3.33" cy="35.49" r=".84"/>
    <circle class="cls-4" cx="8.77" cy="29.61" r=".84"/>
    <circle class="cls-4" cx="2.08" cy="45.82" r=".84"/>
    <circle class="cls-4" cx="6.09" cy="40.9" r=".84"/>
    <ellipse class="cls-4" cx="6.94" cy="56.8" rx="6.69" ry="6.24"/>
    <ellipse class="cls-4" cx="10.86" cy="68.5" rx="6.69" ry="6.24"/>
    <ellipse class="cls-4" cx="25.34" cy="72.08" rx="6.69" ry="6.24"/>
    <ellipse class="cls-2" cx="20.21" cy="62.26" rx="6.69" ry="6.24"/>
    <ellipse class="cls-2" cx="16.3" cy="71.09" rx="6.69" ry="6.24"/>
    <ellipse class="cls-2" cx="12.78" cy="58.94" rx="6.69" ry="6.24"/>
  </g>
</svg>