<?xml version="1.0" encoding="UTF-8"?>
<svg id="_Слой_2" data-name="Слой_2" xmlns="http://www.w3.org/2000/svg" viewBox="0 0 18.78 19.28">
  <defs>
    <style>
      .cls-1, .cls-2 {
        fill: none;
      }

      .cls-1, .cls-2, .cls-3, .cls-4, .cls-5, .cls-6, .cls-7, .cls-8 {
        stroke-miterlimit: 10;
      }

      .cls-1, .cls-2, .cls-3, .cls-6, .cls-7 {
        stroke-width: .12px;
      }

      .cls-1, .cls-2, .cls-5, .cls-7, .cls-8 {
        stroke-linecap: round;
      }

      .cls-1, .cls-5, .cls-8 {
        stroke: #04122f;
      }

      .cls-2, .cls-3, .cls-4, .cls-6, .cls-7 {
        stroke: #5788eb;
      }

      .cls-3, .cls-4 {
        fill: #5788eb;
      }

      .cls-4 {
        stroke-width: .3px;
      }

      .cls-5 {
        stroke-width: .1px;
      }

      .cls-5, .cls-6, .cls-7, .cls-8 {
        fill: #04122f;
      }

      .cls-8 {
        stroke-width: .5px;
      }
    </style>
  </defs>
  <g id="_фон" data-name="фон">
    <ellipse class="cls-6" cx="9.34" cy="8.98" rx="9.09" ry="8.46"/>
  </g>
  <g id="_шмотка" data-name="шмотка">
    <g>
      <path class="cls-7" d="M1.62,10.85l.14.39c.36.9.67,1.65,1.18,2.47l-1.92.88,7.68,2.56,7.1-3.33-1.44-.57c.56-.86.7-1.35,1.06-2.31l.43-1.1"/>
      <path class="cls-7" d="M4.25,9.51c3.96-.52,11.88.03,11.63.3-.35.38-3.68,1.19-5.01.72-.08-.03-.38-.17-.36-.02.07.55-.02,1.2-.5,2.16-.3.59-.9.26-1.57.19-.38-.04-.72-.11-.79-.18-.55-.56-.43-.84-.05-1.48.23-.4.48-.49.43-.59-.13-.29-2.19.72-4.86.59-.21-.01-1.52-.07-1.55-.34-.02-.23,1.03-.92,1.66-1.09l.97-.25Z"/>
    </g>
  </g>
  <g id="_инопланетянин" data-name="инопланетянин">
    <path class="cls-4" d="M15.27,8.63c0,.51.12.77-.08,1.23s-1.63.8-2.62.86c-.5.03-1.07,0-1.48-.06-.21-.03-.56-.17-.6.08-.13.95-.09.61-.19,1.05-.09.37-.2.72-.38.93-.17.19-.64.24-.94.2-.84-.1-1.47-.23-1.61-.41-.55-.71.9-1.99.45-1.91-.6.11-.97.21-1.47.31-.09.02-.96.19-1.05.2-1.01.19-1.65.18-1.82.02-.67-.63-.78-1.19-.78-2.09,0-1.18,1.49-1.74,2.14-2.83.59-1.01,2.55-2.1,4.4-2.1,1.64,0,2.65.57,3.78,1.3,1.27.83,2.25,1.89,2.25,3.21Z"/>
    <path class="cls-1" d="M7.23,8.46c.42.19,1.25.5,2.34.45,1.19-.05,2.06-.51,2.45-.75"/>
    <path class="cls-2" d="M12.35,5c.18,0,.46-.04.77-.17.28-.12.48-.2.57-.41.13-.29-.03-.67-.24-.87-.2-.19-.42-.19-.42-.23.01-.08.9-.01.91.09,0,.04-.15.09-.39.13"/>
    <path class="cls-8" d="M8.5,6.12c0,.22-.05.71-.1.86-.08.24-.51-.22-1.08-.25-.62-.04-1.1-.19-1.1-.67s.5-.88,1.12-.88,1.15.45,1.15.93Z"/>
    <path class="cls-8" d="M10.56,6.02c0,.23.05.72.1.88.08.25.51-.22,1.1-.26.63-.04,1.12-.19,1.12-.68s-.51-.89-1.14-.89-1.17.46-1.17.95Z"/>
    <path class="cls-5" d="M9.31,7.63c-.13.2-.17.32-.34.3-.11,0-.07-.27.05-.47s.31-.32.4-.24c.24.19,0,.21-.12.41Z"/>
    <path class="cls-5" d="M9.9,7.73c.13.2.17.32.34.3.11,0,.07-.27-.05-.47s-.31-.32-.4-.24c-.24.19,0,.21.12.41Z"/>
    <path class="cls-2" d="M3.79,3.71s-.37-.32-.31-.31c.09.02.78.03.81.04.26.08-.31.26-.42.31-.17.08-.2.23-.12.39.04.09.19.36.74.65.27.14.74.34,1.4.4"/>
  </g>
  <g id="_звезда" data-name="звезда">
    <g>
      <path class="cls-3" d="M18.72,8.7c0,4.74-4.17,8.87-8.87,8.87-1.64,0-5.66,1.82-7.04.92l2.9-3.99c1.18.86,2.61,1.36,4.15,1.36,4.02,0,7.28-3.42,7.28-7.63S13.87.6,9.85.6c-1.62,0-3.11.55-4.32,1.49l-.4-.38C6.6.63,8.35.06,10.16.06,14.86.06,18.72,3.96,18.72,8.7Z"/>
      <polygon class="cls-3" points="3.92 2.25 4.89 1.48 4.94 .23 5.7 1.21 6.93 1.25 5.97 2.03 5.91 3.27 5.15 2.3 3.92 2.25"/>
    </g>
    <circle class="cls-3" cx=".82" cy="8.71" r=".21"/>
    <circle class="cls-3" cx="2.15" cy="7.26" r=".21"/>
    <circle class="cls-3" cx=".51" cy="11.24" r=".21"/>
    <circle class="cls-3" cx="1.49" cy="10.04" r=".21"/>
    <ellipse class="cls-3" cx="1.7" cy="13.94" rx="1.64" ry="1.53"/>
    <ellipse class="cls-3" cx="2.66" cy="16.81" rx="1.64" ry="1.53"/>
    <ellipse class="cls-3" cx="6.22" cy="17.69" rx="1.64" ry="1.53"/>
    <ellipse class="cls-6" cx="4.96" cy="15.28" rx="1.64" ry="1.53"/>
    <ellipse class="cls-6" cx="4" cy="17.45" rx="1.64" ry="1.53"/>
    <ellipse class="cls-6" cx="3.14" cy="14.46" rx="1.64" ry="1.53"/>
  </g>
</svg>