<?xml version="1.0" encoding="UTF-8"?>
<svg id="_Слой_2" data-name="Слой_2" xmlns="http://www.w3.org/2000/svg" viewBox="0 0 96.88 99.44">
  <defs>
    <style>
      .cls-1 {
        stroke-width: 2px;
      }

      .cls-1, .cls-2, .cls-3, .cls-4, .cls-5, .cls-6, .cls-7, .cls-8 {
        stroke-miterlimit: 10;
      }

      .cls-1, .cls-2, .cls-6, .cls-8 {
        fill: #04122f;
      }

      .cls-1, .cls-5, .cls-6, .cls-7, .cls-8 {
        stroke-linecap: round;
      }

      .cls-1, .cls-5, .cls-8 {
        stroke: #04122f;
      }

      .cls-2, .cls-3, .cls-4, .cls-6, .cls-7 {
        stroke: #5788eb;
      }

      .cls-2, .cls-4, .cls-5, .cls-6, .cls-7, .cls-8 {
        stroke-width: .5px;
      }

      .cls-3, .cls-4 {
        fill: #5788eb;
      }

      .cls-5, .cls-7 {
        fill: none;
      }
    </style>
  </defs>
  <g id="_фон" data-name="фон">
    <ellipse class="cls-2" cx="48.15" cy="46.32" rx="46.94" ry="43.71"/>
  </g>
  <g id="_шмотка" data-name="шмотка">
    <g>
      <path class="cls-6" d="M8.3,55.96l.74,2c1.88,4.63,3.47,8.52,6.08,12.78l-9.89,4.54,39.64,13.2,36.66-17.19-7.46-2.95c2.9-4.47,3.59-6.97,5.48-11.94l2.24-5.69"/>
      <path class="cls-6" d="M21.88,49.04c20.44-2.66,61.34.14,60.05,1.54-1.83,1.98-18.99,6.12-25.87,3.74-.41-.14-1.98-.9-1.88-.12.35,2.82-.09,6.21-2.58,11.15-1.53,3.03-4.66,1.33-8.09.96-1.99-.22-3.72-.59-4.07-.95-2.83-2.91-2.21-4.31-.28-7.64,1.19-2.05,2.46-2.54,2.23-3.05-.69-1.51-11.29,3.71-25.11,3.05-1.09-.05-7.83-.37-7.98-1.76-.13-1.18,5.33-4.76,8.59-5.65l4.99-1.28Z"/>
    </g>
  </g>
  <g id="_инопланетянин" data-name="инопланетянин">
    <path class="cls-3" d="M78.82,44.51c0,2.63.63,4-.39,6.35s-8.42,4.13-13.53,4.43c-2.58.15-5.53.01-7.66-.29-1.1-.15-2.91-.87-3.09.4-.7,4.89-.45,3.15-.98,5.43-.45,1.93-1.02,3.73-1.96,4.79-.86.97-3.28,1.21-4.83,1.03-4.32-.52-7.6-1.18-8.31-2.09-2.82-3.64,4.65-10.3,2.3-9.89-3.1.54-5,1.08-7.57,1.61-.48.1-4.95.96-5.43,1.05-5.21.96-8.54.94-9.42.11-3.46-3.27-4.03-6.12-4.03-10.77,0-6.07,7.71-8.97,11.03-14.63,3.05-5.2,13.18-10.84,22.73-10.84,8.49,0,13.7,2.95,19.51,6.73,6.55,4.26,11.62,9.76,11.62,16.58Z"/>
    <path class="cls-5" d="M37.29,43.61c2.16.98,6.48,2.59,12.09,2.35,6.15-.27,10.62-2.62,12.67-3.87"/>
    <path class="cls-7" d="M63.7,25.75c.92-.04,2.36-.21,3.97-.89,1.44-.61,2.47-1.05,2.93-2.12.66-1.52-.17-3.47-1.25-4.49-1.02-.96-2.19-1-2.15-1.2.07-.39,4.67-.08,4.69.44,0,.22-.78.45-1.99.68"/>
    <path class="cls-1" d="M43.81,31.56c0,1.16-.25,3.67-.51,4.46-.4,1.25-2.61-1.12-5.58-1.31-3.2-.2-5.67-.97-5.67-3.47s2.6-4.52,5.81-4.52,5.96,2.33,5.96,4.83Z"/>
    <path class="cls-1" d="M54.5,31.01c0,1.18.26,3.73.52,4.54.4,1.27,2.65-1.14,5.67-1.33,3.25-.2,5.76-.99,5.76-3.52,0-2.54-2.64-4.59-5.9-4.59s-6.05,2.37-6.05,4.91Z"/>
    <path class="cls-8" d="M48.04,39.32c-.65,1.02-.86,1.63-1.75,1.56-.59-.05-.37-1.41.28-2.42s1.62-1.63,2.09-1.26c1.26.99.04,1.11-.62,2.12Z"/>
    <path class="cls-8" d="M51.07,39.85c.65,1.02.86,1.63,1.75,1.56.59-.05.37-1.41-.28-2.42s-1.62-1.63-2.09-1.26c-1.26.99-.04,1.11.62,2.12Z"/>
    <path class="cls-7" d="M19.52,19.12s-1.9-1.66-1.6-1.6c.44.09,4.03.14,4.19.2,1.33.44-1.62,1.35-2.16,1.62-.86.43-1.02,1.17-.62,2,.22.45.97,1.85,3.8,3.34,1.37.72,3.8,1.76,7.23,2.06"/>
  </g>
  <g id="_звезда" data-name="звезда">
    <g>
      <path class="cls-4" d="M96.63,44.88c0,24.49-21.54,45.79-45.81,45.79-8.47,0-29.25,9.39-36.38,4.77l14.96-20.62c6.08,4.42,13.46,7.02,21.42,7.02,20.76,0,37.6-17.65,37.6-39.41S71.58,3.02,50.82,3.02c-8.35,0-16.06,2.85-22.3,7.68l-2.06-1.98C34,3.21,43.08.25,52.39.25c24.27,0,44.24,20.15,44.24,44.63Z"/>
      <polygon class="cls-4" points="20.18 11.56 25.19 7.56 25.46 1.13 29.39 6.17 35.75 6.41 30.75 10.41 30.48 16.84 26.54 11.8 20.18 11.56"/>
    </g>
    <circle class="cls-4" cx="4.16" cy="44.91" r="1.07"/>
    <circle class="cls-4" cx="11.05" cy="37.46" r="1.07"/>
    <circle class="cls-4" cx="2.57" cy="58.01" r="1.07"/>
    <circle class="cls-4" cx="7.66" cy="51.77" r="1.07"/>
    <ellipse class="cls-4" cx="8.73" cy="71.92" rx="8.48" ry="7.91"/>
    <ellipse class="cls-4" cx="13.7" cy="86.75" rx="8.48" ry="7.91"/>
    <ellipse class="cls-4" cx="32.05" cy="91.28" rx="8.48" ry="7.91"/>
    <ellipse class="cls-2" cx="25.55" cy="78.84" rx="8.48" ry="7.91"/>
    <ellipse class="cls-2" cx="20.59" cy="90.03" rx="8.48" ry="7.91"/>
    <ellipse class="cls-2" cx="16.13" cy="74.63" rx="8.48" ry="7.91"/>
  </g>
</svg>