<?xml version="1.0" encoding="UTF-8"?>
<svg id="_Слой_2" data-name="Слой_2" xmlns="http://www.w3.org/2000/svg" viewBox="0 0 36.99 37.97">
  <defs>
    <style>
      .cls-1 {
        stroke-width: .8px;
      }

      .cls-1, .cls-2, .cls-3, .cls-4, .cls-5 {
        fill: #04122f;
      }

      .cls-1, .cls-2, .cls-3, .cls-4, .cls-5, .cls-6, .cls-7, .cls-8, .cls-9 {
        stroke-miterlimit: 10;
      }

      .cls-1, .cls-3, .cls-5, .cls-6, .cls-7 {
        stroke-linecap: round;
      }

      .cls-1, .cls-3, .cls-6 {
        stroke: #04122f;
      }

      .cls-2, .cls-4, .cls-5, .cls-7, .cls-8, .cls-9 {
        stroke: #5788eb;
      }

      .cls-2, .cls-5, .cls-7, .cls-9 {
        stroke-width: .25px;
      }

      .cls-3 {
        stroke-width: .15px;
      }

      .cls-4 {
        stroke-width: .3px;
      }

      .cls-6 {
        stroke-width: .23px;
      }

      .cls-6, .cls-7 {
        fill: none;
      }

      .cls-8 {
        stroke-width: .5px;
      }

      .cls-8, .cls-9 {
        fill: #5788eb;
      }
    </style>
  </defs>
  <g id="_фон" data-name="фон">
    <ellipse class="cls-2" cx="18.39" cy="17.69" rx="17.89" ry="16.66"/>
  </g>
  <g id="_шмотка" data-name="шмотка">
    <g>
      <path class="cls-5" d="M3.19,21.36l.28.76c.72,1.76,1.32,3.25,2.32,4.87l-3.77,1.73,15.11,5.03,13.98-6.55-2.84-1.13c1.1-1.7,1.37-2.66,2.09-4.55l.85-2.17"/>
      <path class="cls-5" d="M8.37,18.72c7.79-1.01,23.38.05,22.89.59-.7.75-7.24,2.33-9.86,1.42-.15-.05-.75-.34-.72-.04.13,1.07-.03,2.37-.98,4.25-.58,1.16-1.78.51-3.08.37-.76-.08-1.42-.23-1.55-.36-1.08-1.11-.84-1.64-.11-2.91.45-.78.94-.97.85-1.16-.26-.58-4.3,1.42-9.57,1.16-.41-.02-2.99-.14-3.04-.67-.05-.45,2.03-1.82,3.28-2.15l1.9-.49Z"/>
    </g>
  </g>
  <g id="_инопланетянин" data-name="инопланетянин">
    <path class="cls-8" d="M30.08,17c0,1,.24,1.52-.15,2.42s-3.21,1.57-5.16,1.69c-.98.06-2.11,0-2.92-.11-.42-.06-1.11-.33-1.18.15-.27,1.86-.17,1.2-.37,2.07-.17.74-.39,1.42-.75,1.83-.33.37-1.25.46-1.84.39-1.65-.2-2.9-.45-3.17-.8-1.08-1.39,1.77-3.93.88-3.77-1.18.21-1.9.41-2.89.61-.18.04-1.89.37-2.07.4-1.99.36-3.25.36-3.59.04-1.32-1.25-1.53-2.33-1.53-4.11,0-2.31,2.94-3.42,4.2-5.58,1.16-1.98,5.02-4.13,8.66-4.13,3.24,0,5.22,1.12,7.44,2.56,2.5,1.62,4.43,3.72,4.43,6.32Z"/>
    <path class="cls-6" d="M14.24,16.65c.82.37,2.47.99,4.61.89,2.35-.1,4.05-1,4.83-1.48"/>
    <path class="cls-7" d="M24.31,9.85c.35-.02.9-.08,1.51-.34.55-.23.94-.4,1.12-.81.25-.58-.06-1.32-.48-1.71-.39-.37-.83-.38-.82-.46.03-.15,1.78-.03,1.79.17,0,.08-.3.17-.76.26"/>
    <path class="cls-1" d="M16.73,12.06c0,.44-.1,1.4-.19,1.7-.15.48-.99-.43-2.13-.5-1.22-.08-2.16-.37-2.16-1.32s.99-1.72,2.21-1.72,2.27.89,2.27,1.84Z"/>
    <path class="cls-1" d="M20.8,11.85c0,.45.1,1.42.2,1.73.15.48,1.01-.43,2.16-.51,1.24-.08,2.2-.38,2.2-1.34s-1.01-1.75-2.25-1.75-2.31.9-2.31,1.87Z"/>
    <path class="cls-3" d="M18.34,15.02c-.25.39-.33.62-.67.59-.23-.02-.14-.54.11-.92s.62-.62.8-.48c.48.38.01.42-.24.81Z"/>
    <path class="cls-3" d="M19.5,15.22c.25.39.33.62.67.59.23-.02.14-.54-.11-.92s-.62-.62-.8-.48c-.48.38-.01.42.24.81Z"/>
    <path class="cls-7" d="M7.47,7.32s-.73-.63-.61-.61c.17.03,1.54.06,1.6.07.51.17-.62.51-.82.62-.33.16-.39.45-.24.76.08.17.37.71,1.45,1.27.52.28,1.45.67,2.76.79"/>
  </g>
  <g id="_звезда" data-name="звезда">
    <g>
      <path class="cls-9" d="M36.86,17.14c0,9.33-8.21,17.46-17.46,17.46-3.23,0-11.15,3.58-13.87,1.82l5.7-7.86c2.32,1.69,5.13,2.68,8.17,2.68,7.92,0,14.33-6.73,14.33-15.02S27.32,1.18,19.4,1.18c-3.18,0-6.12,1.09-8.5,2.93l-.78-.75C12.99,1.26,16.45.12,20,.12c9.25,0,16.86,7.68,16.86,17.01Z"/>
      <polygon class="cls-9" points="7.72 4.44 9.63 2.91 9.73 .46 11.23 2.38 13.66 2.47 11.75 4 11.65 6.45 10.15 4.53 7.72 4.44"/>
    </g>
    <circle class="cls-9" cx="1.61" cy="17.15" r=".41"/>
    <circle class="cls-9" cx="4.24" cy="14.31" r=".41"/>
    <circle class="cls-9" cx="1.01" cy="22.14" r=".41"/>
    <circle class="cls-9" cx="2.95" cy="19.76" r=".41"/>
    <ellipse class="cls-9" cx="3.36" cy="27.44" rx="3.23" ry="3.01"/>
    <ellipse class="cls-9" cx="5.25" cy="33.1" rx="3.23" ry="3.01"/>
    <ellipse class="cls-9" cx="12.25" cy="34.83" rx="3.23" ry="3.01"/>
    <ellipse class="cls-2" cx="9.77" cy="30.08" rx="3.23" ry="3.01"/>
    <ellipse class="cls-4" cx="7.88" cy="34.35" rx="3.23" ry="3.01"/>
    <ellipse class="cls-2" cx="6.18" cy="28.48" rx="3.23" ry="3.01"/>
  </g>
</svg>