<?xml version="1.0" encoding="UTF-8"?>
<svg id="_Слой_2" data-name="Слой_2" xmlns="http://www.w3.org/2000/svg" viewBox="0 0 691.46 709.78">
  <defs>
    <style>
      .cls-1, .cls-2, .cls-3, .cls-4, .cls-5, .cls-6, .cls-7, .cls-8 {
        stroke-miterlimit: 10;
      }

      .cls-1, .cls-2, .cls-3, .cls-6, .cls-8 {
        stroke-linecap: round;
      }

      .cls-1, .cls-2, .cls-4, .cls-5, .cls-6, .cls-8 {
        stroke-width: 5px;
      }

      .cls-1, .cls-3, .cls-5, .cls-6 {
        fill: #04122f;
      }

      .cls-1, .cls-4, .cls-5, .cls-7, .cls-8 {
        stroke: #5788eb;
      }

      .cls-2, .cls-3, .cls-6 {
        stroke: #04122f;
      }

      .cls-2, .cls-8 {
        fill: none;
      }

      .cls-3 {
        stroke-width: 16px;
      }

      .cls-4, .cls-7 {
        fill: #5788eb;
      }
    </style>
  </defs>
  <g id="_фон" data-name="фон">
    <ellipse class="cls-5" cx="344.69" cy="329.6" rx="335.31" ry="312.25"/>
  </g>
  <g id="_шмотка" data-name="шмотка">
    <g>
      <path class="cls-1" d="M59.97,398.45l5.31,14.28c13.42,33.06,24.75,60.89,43.43,91.3l-70.66,32.4,283.18,94.31,261.9-122.77-53.27-21.1c20.68-31.9,25.66-49.76,39.12-85.32l16.01-40.66"/>
      <path class="cls-1" d="M156.98,349c146.04-19,438.2,1.02,428.95,11.01-13.09,14.12-135.66,43.73-184.78,26.7-2.9-1.01-14.11-6.43-13.41-.84,2.51,20.12-.61,44.35-18.44,79.63-10.94,21.65-33.29,9.53-57.77,6.87-14.18-1.54-26.56-4.23-29.06-6.79-20.22-20.79-15.77-30.82-2.03-54.57,8.48-14.65,17.59-18.13,15.93-21.79-4.91-10.79-80.67,26.52-179.39,21.79-7.77-.37-55.95-2.68-57-12.57-.9-8.44,38.05-34.04,61.38-40.34l35.63-9.11Z"/>
    </g>
  </g>
  <g id="_инопланетянин" data-name="инопланетянин">
    <path class="cls-4" d="M563.76,316.68c0,18.76,4.49,28.55-2.79,45.38-7.13,16.47-60.16,29.48-96.68,31.67-18.45,1.11-39.5.08-54.75-2.04-7.88-1.09-20.76-6.21-22.05,2.84-4.97,34.9-3.22,22.52-7.01,38.8-3.22,13.82-7.28,26.62-13.99,34.23-6.13,6.95-23.43,8.68-34.5,7.35-30.83-3.7-54.31-8.4-59.39-14.96-20.16-26.03,33.21-73.55,16.46-70.62-22.15,3.88-35.68,7.73-54.07,11.5-3.44.7-35.36,6.85-38.76,7.47-37.21,6.82-60.98,6.74-67.26.8-24.72-23.39-28.76-43.75-28.76-76.93,0-43.36,55.05-64.1,78.79-104.54,21.79-37.12,94.15-77.44,162.36-77.44,60.67,0,97.86,21.04,139.4,48.05,46.82,30.45,82.98,69.72,82.98,118.44Z"/>
    <path class="cls-2" d="M267.08,310.24c15.45,7.01,46.26,18.5,86.34,16.76,43.95-1.9,75.88-18.71,90.53-27.66"/>
    <path class="cls-8" d="M455.77,182.65c6.6-.28,16.88-1.5,28.38-6.37,10.26-4.35,17.62-7.48,20.96-15.16,4.69-10.83-1.19-24.78-8.94-32.05-7.3-6.85-15.62-7.17-15.37-8.58.51-2.81,33.38-.55,33.53,3.15.06,1.54-5.57,3.21-14.25,4.86"/>
    <path class="cls-3" d="M313.68,224.17c0,8.29-1.81,26.2-3.63,31.89-2.84,8.93-18.64-8.01-39.89-9.32-22.86-1.41-40.51-6.93-40.51-24.76s18.57-32.29,41.47-32.29,42.55,16.65,42.55,34.48Z"/>
    <path class="cls-3" d="M390.03,220.21c0,8.42,1.84,26.62,3.68,32.41,2.89,9.08,18.94-8.14,40.53-9.47,23.23-1.43,41.17-7.04,41.17-25.16,0-18.12-18.87-32.81-42.14-32.81s-43.24,16.92-43.24,35.04Z"/>
    <path class="cls-6" d="M343.88,279.6c-4.68,7.27-6.15,11.62-12.52,11.14-4.23-.32-2.67-10.05,2.01-17.32s11.59-11.62,14.93-9c8.99,7.07.26,7.91-4.42,15.18Z"/>
    <path class="cls-6" d="M365.49,283.38c4.68,7.27,6.15,11.62,12.52,11.14,4.23-.32,2.67-10.05-2.01-17.32s-11.59-11.62-14.93-9c-8.99,7.07-.26,7.91,4.42,15.18Z"/>
    <path class="cls-8" d="M140.14,135.27c.34.22-13.6-11.88-11.42-11.46,3.16.62,28.82,1.03,29.93,1.4,9.52,3.12-11.56,9.65-15.43,11.6-6.12,3.08-7.27,8.39-4.42,14.3,1.55,3.22,6.95,13.23,27.15,23.84,9.82,5.16,27.16,12.59,51.68,14.74"/>
  </g>
  <g id="_звезда" data-name="звезда">
    <g>
      <path class="cls-7" d="M690.96,319.34c0,174.91-153.88,327.1-327.25,327.1-60.53,0-208.94,67.06-259.87,34.06l106.84-147.31c43.42,31.61,96.16,50.13,153.03,50.13,148.32,0,268.56-126.05,268.56-281.53S512.04,20.26,363.71,20.26c-59.64,0-114.74,20.38-159.3,54.87l-14.68-14.13C243.61,21.68,308.44.5,374.95.5c173.37,0,316.01,143.93,316.01,318.84Z"/>
      <polygon class="cls-7" points="144.9 81.29 180.63 52.71 182.55 6.79 210.67 42.77 256.1 44.49 220.36 73.07 218.45 118.99 190.33 83.01 144.9 81.29"/>
    </g>
    <circle class="cls-4" cx="30.41" cy="319.55" r="7.64"/>
    <circle class="cls-4" cx="79.63" cy="266.29" r="7.64"/>
    <circle class="cls-4" cx="19.08" cy="413.1" r="7.64"/>
    <circle class="cls-4" cx="55.41" cy="368.53" r="7.64"/>
    <ellipse class="cls-4" cx="63.04" cy="512.44" rx="60.54" ry="56.49"/>
    <ellipse class="cls-4" cx="98.59" cy="618.38" rx="60.54" ry="56.49"/>
    <ellipse class="cls-4" cx="229.66" cy="650.79" rx="60.54" ry="56.49"/>
    <ellipse class="cls-5" cx="183.2" cy="561.89" rx="60.54" ry="56.49"/>
    <ellipse class="cls-5" cx="147.81" cy="641.85" rx="60.54" ry="56.49"/>
    <ellipse class="cls-5" cx="115.95" cy="531.81" rx="60.54" ry="56.49"/>
  </g>
</svg>